<?xml version="1.0" standalone="no"?>
<!DOCTYPE svg PUBLIC "-//W3C//DTD SVG 20010904//EN"
 "http://www.w3.org/TR/2001/REC-SVG-20010904/DTD/svg10.dtd">
<svg version="1.0" xmlns="http://www.w3.org/2000/svg"
 width="180.000000pt" height="138.000000pt" viewBox="0 0 180.000000 138.000000"
 preserveAspectRatio="xMidYMid meet">
<metadata>
Created by potrace 1.10, written by Peter Selinger 2001-2011
</metadata>
<g transform="translate(0.000000,138.000000) scale(0.100000,-0.100000)"
fill="#c181f6" stroke="none">
<path d="M1133 1323 c-34 -12 -117 -90 -445 -418 -350 -351 -408 -404 -440
-410 -64 -12 -128 43 -128 109 0 36 45 89 222 262 119 117 172 162 195 167 21
4 34 14 39 29 7 25 40 103 55 131 10 19 -1 22 -29 8 -9 -5 -44 -20 -77 -33
-56 -22 -60 -26 -63 -58 -3 -30 -28 -60 -187 -220 -101 -102 -193 -202 -204
-223 -27 -48 -26 -85 1 -137 28 -53 67 -86 118 -101 82 -25 95 -15 523 410
214 212 406 397 428 410 38 22 41 23 74 7 44 -21 75 -65 75 -107 0 -29 -27
-59 -262 -296 -145 -145 -323 -324 -396 -396 -143 -142 -192 -206 -192 -254 0
-38 69 -136 112 -157 50 -25 115 -21 157 11 20 15 209 201 421 414 399 400
413 412 472 394 39 -12 78 -65 78 -106 0 -33 -13 -50 -152 -194 -84 -87 -165
-170 -179 -184 -44 -45 -83 -71 -105 -71 -27 0 -38 -14 -54 -65 -7 -22 -16
-48 -21 -57 -5 -10 -9 -26 -9 -35 0 -15 2 -15 9 -4 5 8 18 15 28 16 10 1 44
12 76 24 53 21 57 25 57 54 0 27 24 56 196 227 108 108 203 211 210 229 42
101 -25 209 -145 236 -67 15 -102 -14 -509 -420 -213 -211 -396 -391 -407
-400 -48 -35 -124 -8 -149 55 -15 38 -15 43 3 78 11 20 191 208 401 417 378
376 430 437 430 496 0 35 -49 114 -83 135 -26 15 -102 47 -102 43 0 -1 -19 -8
-42 -16z m75 -19 c39 -8 105 -69 122 -112 13 -34 12 -41 -24 -109 -14 -27 -47
-61 -455 -467 -367 -366 -376 -378 -345 -456 29 -71 116 -101 179 -61 17 10
202 190 412 400 210 209 386 381 389 381 4 0 15 7 25 15 48 45 159 3 199 -75
42 -81 24 -115 -157 -294 -81 -80 -151 -146 -155 -146 -13 0 11 40 28 47 8 3
14 10 14 15 0 6 38 47 84 92 179 173 200 212 155 286 -27 43 -45 57 -87 65
-52 10 -98 -21 -225 -150 -64 -66 -122 -124 -127 -130 -62 -63 -76 -75 -87
-75 -7 0 -13 -4 -13 -8 0 -11 -385 -403 -434 -441 -30 -24 -49 -31 -84 -31
-42 0 -50 4 -93 50 -66 70 -77 101 -53 147 11 20 135 153 277 296 141 144 257
265 257 269 0 4 4 8 8 8 6 0 201 192 258 253 15 17 27 48 31 83 5 35 -30 84
-80 114 -36 23 -85 10 -142 -36 -22 -17 -179 -170 -350 -339 -463 -457 -449
-445 -507 -445 -84 0 -172 103 -149 173 15 45 34 66 216 251 152 152 176 182
190 232 5 21 74 60 93 53 7 -3 3 -22 -9 -50 -15 -34 -29 -50 -57 -62 -38 -17
-374 -344 -398 -388 -31 -56 -9 -132 49 -168 38 -23 72 -26 114 -10 20 7 523
494 627 606 41 46 167 172 188 190 37 30 66 37 116 27z m148 -964 c-14 -17
-31 -48 -37 -69 -12 -39 -40 -63 -91 -75 -23 -5 -28 -3 -28 12 0 35 25 72 60
87 56 26 87 44 100 60 7 8 15 15 17 15 3 0 -7 -14 -21 -30z"/>
</g>
</svg>
