<svg width="25" height="26" viewBox="0 0 25 26" fill="none" xmlns="http://www.w3.org/2000/svg">
<path fill-rule="evenodd" clip-rule="evenodd" d="M12.5 25.5C19.4036 25.5 25 19.9036 25 13C25 6.09644 19.4036 0.5 12.5 0.5C5.59644 0.5 0 6.09644 0 13C0 19.9036 5.59644 25.5 12.5 25.5ZM8.09717 17.412V19.5H16.6652V16.728H12.4352L14.5232 14.622C15.6752 13.47 16.4852 12.174 16.4852 10.662C16.4852 8.124 14.4692 6.648 12.2192 6.648C10.4732 6.648 8.78117 7.53 7.97117 9.402L10.4012 10.824C10.7432 10.032 11.3732 9.456 12.2552 9.456C13.1012 9.456 13.6052 9.996 13.6052 10.788C13.6052 11.526 13.0652 12.264 12.3272 13.02L8.09717 17.412Z" fill="#4E46DC"/>
</svg>
