<svg width="25" height="25" viewBox="0 0 25 25" fill="none" xmlns="http://www.w3.org/2000/svg">
<path fill-rule="evenodd" clip-rule="evenodd" d="M12.5 25C19.4036 25 25 19.4036 25 12.5C25 5.59644 19.4036 0 12.5 0C5.59644 0 0 5.59644 0 12.5C0 19.4036 5.59644 25 12.5 25ZM16.9118 15.04C16.9118 13.294 15.7778 12.052 14.2298 11.512L16.4078 8.74V6.4H8.30776V9.1H12.9158L10.6298 11.998L11.7278 13.636H12.3218C13.5098 13.636 14.0318 14.266 14.0318 15.04C14.0318 15.814 13.5098 16.444 12.3218 16.444C11.2238 16.444 10.6838 15.94 10.3958 15.112L7.91176 16.552C8.68576 18.406 10.4138 19.252 12.3218 19.252C14.7518 19.252 16.9118 17.812 16.9118 15.04Z" fill="#4E46DC"/>
</svg>
