<?xml version="1.0" standalone="no"?>
<!DOCTYPE svg PUBLIC "-//W3C//DTD SVG 20010904//EN"
 "http://www.w3.org/TR/2001/REC-SVG-20010904/DTD/svg10.dtd">
<svg version="1.0" xmlns="http://www.w3.org/2000/svg"
 width="170px" height="60px" viewBox="0 0 900.000000 160.000000"
 preserveAspectRatio="xMidYMid meet">

<g transform="translate(0.000000,160.000000) scale(0.100000,-0.100000)"
fill="#57586E" stroke="none">
<path d="M2090 800 c0 -527 3 -800 10 -800 7 0 10 273 10 800 0 527 -3 800
-10 800 -7 0 -10 -273 -10 -800z"/>
<path d="M951 1331 c-168 -42 -306 -82 -308 -88 -2 -6 10 -65 27 -132 17 -67
28 -126 25 -132 -4 -5 -24 -9 -45 -9 -56 0 -161 -41 -218 -85 -216 -164 -241
-485 -53 -673 88 -88 196 -132 327 -133 86 0 151 16 221 57 47 27 124 101 149
143 15 25 32 31 217 77 112 27 215 58 232 69 18 12 36 37 44 61 14 40 11 52
-84 435 -54 217 -104 406 -112 421 -16 33 -47 54 -88 60 -19 3 -146 -24 -334
-71z m360 26 c9 -7 21 -21 26 -32 18 -33 203 -771 203 -808 0 -21 -7 -41 -19
-51 -14 -13 -353 -109 -408 -116 -1 0 5 16 13 35 7 19 14 46 14 59 0 32 11 37
150 71 63 15 123 32 133 37 25 13 21 28 -9 28 -21 0 -179 -36 -247 -56 -16 -5
-18 -1 -15 32 l3 38 105 26 c58 15 117 30 133 33 33 9 37 37 5 37 -13 0 -74
-14 -137 -30 -63 -16 -118 -27 -122 -25 -4 3 -9 15 -12 27 -2 13 -8 31 -12 41
-5 13 -2 17 11 17 37 0 121 48 152 86 93 112 76 275 -36 361 -73 55 -180 70
-257 34 -78 -35 -145 -136 -145 -218 l0 -30 -48 10 -48 10 -31 126 c-18 69
-31 126 -30 127 11 7 568 142 587 143 14 0 32 -5 41 -12z m-118 -197 c20 -10
24 -16 15 -22 -25 -15 -55 -8 -82 21 l-28 29 33 -8 c19 -4 47 -13 62 -20z
m-94 -52 c-27 -10 -27 -10 -35 33 l-7 34 32 -30 c31 -29 31 -29 10 -37z m-135
3 c-7 -33 -33 -54 -62 -49 -13 2 -8 12 22 46 21 23 40 41 42 39 2 -2 1 -18 -2
-36z m68 5 c4 -18 0 -26 -16 -30 -28 -7 -31 -1 -16 34 14 33 25 32 32 -4z
m242 -37 c21 -36 20 -38 -26 -46 -32 -5 -36 -3 -42 23 -4 16 -8 31 -7 34 0 4
29 15 51 19 3 1 14 -13 24 -30z m-109 -30 c9 -17 15 -32 13 -34 -2 -2 -20 -7
-40 -13 -34 -9 -37 -8 -42 13 -3 13 -9 30 -12 38 -5 14 8 21 53 26 7 0 20 -13
28 -30z m-110 -30 c8 -37 5 -40 -37 -42 -29 -2 -33 1 -36 27 -4 31 10 46 45
46 16 0 23 -8 28 -31z m-105 -29 c0 -22 -4 -40 -9 -40 -5 0 -23 -3 -40 -6 -29
-6 -31 -5 -31 24 0 37 18 52 73 61 4 0 7 -17 7 -39z m350 -25 c0 -21 -5 -35
-12 -35 -7 0 -23 -3 -35 -6 -21 -6 -23 -3 -23 29 0 36 8 43 53 46 13 1 17 -7
17 -34z m-113 -50 c-6 -13 -55 -27 -61 -16 -2 3 -6 18 -10 33 -5 24 -3 27 32
35 34 8 37 7 40 -15 2 -13 1 -29 -1 -37z m-103 -6 c6 -28 -6 -39 -43 -39 -14
0 -41 36 -41 55 0 8 65 22 71 16 4 -3 9 -18 13 -32z m-303 21 c72 -14 144 -52
202 -108 92 -90 131 -188 125 -320 -2 -74 -8 -98 -35 -152 -81 -165 -264 -261
-439 -232 -281 47 -429 349 -296 608 28 53 107 131 165 160 95 49 180 62 278
44z m186 -36 c-9 -9 -28 6 -21 18 4 6 10 6 17 -1 6 -6 8 -13 4 -17z m305 -36
c-23 -36 -89 -93 -79 -68 3 8 11 32 18 52 11 35 21 42 67 47 10 1 8 -8 -6 -31z
m-97 -24 c-8 -20 -15 -39 -16 -43 -1 -11 -18 34 -18 51 -1 10 8 18 22 21 12 2
23 5 25 6 1 0 -5 -15 -13 -35z m-67 -23 c4 -23 4 -23 -22 -5 -32 24 -33 36 -3
32 14 -2 23 -11 25 -27z"/>
<path d="M648 869 c-162 -25 -284 -157 -296 -319 -11 -156 93 -311 240 -359
49 -16 156 -16 204 -1 102 33 180 99 222 190 22 46 26 70 27 140 0 75 -4 93
-31 150 -72 149 -208 223 -366 199z m32 -57 c0 -16 3 -32 7 -35 11 -12 33 14
33 39 0 21 3 23 33 18 38 -8 104 -36 132 -57 19 -14 19 -16 2 -34 -33 -37 -12
-60 25 -27 24 22 40 8 73 -61 33 -70 33 -105 2 -105 -13 0 -26 -3 -30 -6 -12
-12 6 -34 29 -34 34 0 32 -38 -5 -116 -32 -67 -47 -82 -64 -65 -12 12 -47 15
-47 4 0 -3 7 -14 16 -24 9 -10 13 -23 9 -29 -10 -16 -96 -56 -136 -64 -35 -6
-37 -5 -43 25 -7 37 -30 34 -34 -5 -3 -25 -6 -27 -35 -21 -49 11 -124 45 -142
64 -14 16 -14 19 0 31 8 7 15 19 15 26 0 19 -24 18 -40 -1 -10 -12 -15 -13
-28 -3 -23 20 -62 109 -62 144 0 27 4 32 31 38 37 7 34 30 -4 34 -18 2 -27 9
-27 21 0 27 21 82 47 125 l25 38 24 -23 c33 -31 53 -13 25 23 -19 24 -19 26
-3 40 34 28 72 48 109 57 60 14 63 13 63 -17z"/>
<path d="M685 737 c-3 -6 -20 -58 -39 -114 l-34 -101 35 -112 c26 -82 38 -110
50 -108 9 2 28 44 50 112 l35 109 -33 108 c-31 101 -53 137 -64 106z m47 -252
c-6 -27 -15 -63 -22 -80 -12 -30 -12 -30 -35 44 l-24 75 22 74 21 73 24 -68
c21 -59 22 -75 14 -118z"/>
<path d="M4560 800 l0 -470 125 0 125 0 0 98 c0 90 2 100 23 120 l23 21 74
-119 75 -120 129 0 c113 0 127 2 122 16 -3 8 -58 91 -121 184 -63 93 -115 174
-115 180 0 7 46 72 103 144 57 72 106 137 111 144 6 9 -21 12 -123 12 l-130 0
-83 -116 -83 -116 -3 246 -2 246 -125 0 -125 0 0 -470z"/>
<path d="M5302 803 l3 -468 123 -3 122 -3 0 99 c0 90 2 100 23 121 l24 22 74
-118 74 -118 128 -3 c78 -2 127 1 127 7 0 6 -54 90 -120 187 -66 98 -120 181
-120 186 0 4 48 69 107 143 l106 135 37 -87 c20 -49 81 -197 135 -331 l99
-243 101 3 100 3 41 112 c22 62 43 115 46 118 3 3 24 -49 48 -115 l42 -121
101 3 101 3 133 325 c73 179 133 331 133 338 0 9 -29 12 -113 12 l-113 0 -74
-207 c-40 -115 -77 -212 -81 -216 -6 -8 -39 85 -39 111 0 6 25 74 55 151 30
78 55 146 55 151 0 7 -35 10 -97 8 l-97 -3 -23 -80 c-13 -44 -25 -84 -27 -90
-3 -8 -17 36 -52 158 -5 15 -19 17 -106 17 -76 0 -99 -3 -95 -12 3 -7 30 -77
61 -156 l56 -143 -17 -60 c-9 -32 -19 -59 -22 -59 -3 0 -40 96 -82 213 l-76
212 -240 3 -239 2 -87 -122 -87 -121 0 251 0 252 -125 0 -125 0 2 -467z"/>
<path d="M7140 1165 l0 -105 125 0 125 0 0 105 0 105 -125 0 -125 0 0 -105z"/>
<path d="M2767 1213 c-4 -3 -7 -50 -7 -104 l0 -98 -37 -3 -38 -3 -3 -92 -3
-93 41 0 40 0 0 -149 c0 -233 16 -285 101 -329 38 -20 55 -23 129 -19 100 4
200 33 200 56 -1 22 -37 171 -43 177 -3 3 -24 0 -47 -6 -35 -9 -46 -9 -66 5
-23 15 -24 19 -24 140 l0 125 65 0 65 0 0 95 0 95 -65 0 -65 0 0 105 0 105
-118 0 c-65 0 -122 -3 -125 -7z"/>
<path d="M3615 1005 c-22 -8 -59 -35 -83 -60 -24 -25 -45 -45 -48 -45 -2 0 -4
25 -4 55 l0 55 -110 0 -110 0 0 -340 0 -340 125 0 125 0 0 203 0 203 40 23
c22 12 68 25 102 29 l63 7 3 113 3 112 -33 0 c-18 -1 -51 -7 -73 -15z"/>
<path d="M4039 1010 c-138 -24 -241 -116 -275 -243 -53 -198 44 -377 234 -432
91 -27 224 -17 306 24 63 31 146 109 146 136 0 7 -42 24 -100 41 l-100 27 -30
-28 c-23 -22 -42 -29 -83 -33 -46 -4 -57 -1 -84 22 -17 14 -33 35 -36 46 -5
20 -1 20 228 20 l233 0 6 34 c10 52 -12 164 -42 219 -34 63 -100 121 -166 146
-62 23 -172 33 -237 21z m140 -197 c16 -16 32 -38 36 -50 6 -23 6 -23 -99 -23
-122 0 -130 8 -72 66 44 44 92 47 135 7z"/>
<path d="M7842 1003 c-18 -9 -51 -36 -72 -61 l-40 -45 0 57 0 56 -115 0 -115
0 0 -335 0 -335 125 0 125 0 0 199 0 199 35 22 c20 12 67 27 105 33 l70 11 0
108 0 108 -42 0 c-24 0 -58 -8 -76 -17z"/>
<path d="M8239 1006 c-107 -41 -174 -99 -212 -185 -25 -57 -34 -182 -18 -248
26 -103 101 -182 211 -224 42 -16 77 -21 150 -21 129 0 194 24 273 104 32 32
57 63 55 70 -2 6 -48 24 -103 39 l-98 28 -22 -24 c-63 -67 -185 -49 -209 33
l-7 22 235 0 236 0 0 75 c0 143 -68 254 -193 311 -53 25 -76 29 -162 31 -65 2
-112 -2 -136 -11z m194 -191 c13 -14 27 -34 30 -45 5 -19 0 -20 -99 -20 -118
0 -128 8 -75 61 40 39 106 41 144 4z"/>
<path d="M7140 675 l0 -335 125 0 125 0 0 335 0 335 -125 0 -125 0 0 -335z"/>
</g>
</svg>
