<?xml version="1.0" standalone="no"?>
<!DOCTYPE svg PUBLIC "-//W3C//DTD SVG 20010904//EN"
 "http://www.w3.org/TR/2001/REC-SVG-20010904/DTD/svg10.dtd">
<svg version="1.0" xmlns="http://www.w3.org/2000/svg"
 width="24.000000pt" height="24.000000pt" viewBox="0 0 1080.000000 1080.000000"
 preserveAspectRatio="xMidYMid meet">

<g transform="translate(0.000000,1080.000000) scale(0.100000,-0.100000)"
fill="#000000" stroke="none">
<path d="M5180 8364 c-19 -2 -78 -9 -130 -15 -845 -94 -1635 -576 -2114 -1288
-260 -388 -412 -786 -481 -1266 -30 -208 -29 -679 2 -802 l5 -23 -436 -2 -437
-3 222 -323 c121 -177 219 -328 216 -335 -3 -7 -102 -154 -221 -327 l-216
-315 699 -5 700 -5 88 -110 c411 -512 971 -872 1603 -1028 268 -67 399 -82
710 -82 173 0 310 5 370 13 380 53 741 169 1055 340 359 195 652 442 921 777
l76 95 699 2 700 3 -217 315 c-118 173 -218 320 -221 327 -2 6 95 157 217 335
l221 323 -436 3 -437 2 5 23 c31 124 33 602 3 804 -51 342 -132 606 -281 908
-134 272 -287 497 -474 697 -489 524 -1071 832 -1776 939 -124 19 -540 34
-635 23z m120 -404 c50 -99 94 -180 98 -180 4 0 48 82 97 181 l90 181 81 -6
c85 -6 291 -39 356 -56 l37 -10 -20 -70 c-10 -38 -19 -74 -19 -79 0 -12 77
-34 95 -27 7 2 19 30 26 61 20 91 19 90 134 51 176 -59 445 -180 445 -198 0
-5 -16 -37 -35 -69 -19 -33 -35 -64 -35 -69 0 -9 71 -50 87 -50 5 0 23 27 41
60 18 33 37 62 42 65 10 6 122 -65 234 -150 89 -67 246 -203 246 -213 0 -4
-25 -32 -55 -62 l-55 -54 32 -33 c18 -18 37 -33 43 -33 6 0 33 23 60 50 27 28
53 50 57 50 10 0 146 -157 213 -246 57 -75 155 -220 155 -228 0 -3 -31 -23
-69 -46 l-70 -40 26 -45 c13 -25 27 -45 30 -45 4 0 34 16 69 35 34 19 66 35
72 35 21 0 197 -411 227 -532 6 -25 5 -26 -69 -44 -55 -13 -76 -22 -76 -33 0
-29 21 -91 31 -91 5 0 41 9 79 19 l70 20 9 -37 c20 -74 52 -269 57 -352 l6
-85 -188 -94 -189 -93 189 -95 189 -95 -7 -81 c-3 -45 -9 -99 -12 -119 l-7
-38 -1008 0 -1008 0 26 46 c14 25 36 75 48 111 13 37 29 70 37 73 7 4 194 50
415 101 222 51 399 96 395 100 -4 4 -187 49 -407 99 -220 51 -405 97 -411 101
-6 5 -17 28 -24 51 -7 24 -26 70 -42 103 -26 51 -29 62 -18 80 7 11 211 279
453 595 242 316 445 581 451 589 9 12 8 13 -4 6 -11 -7 -1125 -858 -1187 -907
-7 -6 -28 -1 -60 15 -26 13 -73 32 -103 42 -30 9 -60 22 -66 29 -6 6 -53 194
-105 418 -52 224 -97 404 -101 400 -4 -4 -45 -173 -93 -377 -47 -203 -90 -387
-96 -407 -8 -33 -15 -38 -62 -54 -68 -22 -161 -68 -217 -108 -25 -18 -50 -35
-56 -39 -6 -3 -71 34 -144 83 -74 49 -136 88 -138 86 -2 -3 37 -65 87 -139
l90 -135 -33 -44 c-43 -56 -82 -130 -115 -220 l-26 -71 -413 -96 c-226 -53
-412 -98 -412 -102 0 -3 170 -45 378 -93 207 -48 394 -92 414 -97 33 -8 38
-15 54 -62 9 -28 30 -78 45 -109 16 -32 29 -60 29 -63 0 -3 -452 -5 -1004 -5
l-1003 0 -7 38 c-3 21 -8 76 -12 122 l-6 85 181 90 c99 49 181 92 181 95 0 3
-81 46 -180 95 l-180 90 0 35 c0 72 46 372 65 427 3 9 22 7 72 -8 37 -10 73
-19 79 -19 13 0 39 84 30 98 -3 5 -37 18 -76 27 -38 9 -70 20 -70 22 0 17 48
162 82 248 48 122 139 305 151 305 5 0 36 -16 68 -35 33 -19 63 -35 67 -35 9
0 58 88 52 93 -3 3 -31 19 -62 37 -32 17 -61 36 -64 42 -13 20 189 299 310
428 l49 52 58 -58 59 -58 40 39 40 39 -57 58 -57 58 39 41 c80 81 407 329 436
329 4 0 24 -29 44 -65 20 -36 41 -65 46 -65 10 0 51 20 78 39 15 9 17 4 -48
113 l-22 37 108 54 c148 74 447 189 457 175 2 -2 11 -36 21 -75 13 -48 24 -73
33 -73 22 0 92 22 92 29 0 4 -9 38 -19 76 -14 50 -16 72 -8 77 25 15 325 65
409 67 l48 1 90 -180z m273 -1869 c42 -11 92 -28 113 -39 l37 -19 -162 -124
c-151 -116 -165 -124 -219 -131 -161 -21 -299 -160 -321 -323 -7 -49 -18 -68
-126 -210 -65 -86 -122 -158 -127 -161 -12 -7 -37 51 -59 133 -26 103 -26 263
0 365 66 258 283 463 546 518 78 16 237 11 318 -9z m506 -476 c42 -126 44
-304 5 -422 -22 -68 -82 -188 -103 -207 -16 -14 -55 -16 -327 -14 -309 3 -309
3 -280 22 15 11 52 23 82 27 158 21 303 165 321 318 7 60 15 73 155 254 114
147 106 146 147 22z m-564 31 c169 -78 209 -303 78 -438 -91 -93 -246 -107
-353 -30 -76 55 -109 119 -110 216 0 81 17 129 64 183 80 91 213 120 321 69z
m1631 -752 c81 -39 88 -167 12 -214 -40 -24 -116 -27 -158 -5 -56 29 -75 104
-44 170 28 60 118 83 190 49z m-2728 -296 c1 -142 6 -258 10 -258 4 1 49 55
101 120 l93 120 135 0 c80 0 133 -4 131 -9 -1 -6 -50 -65 -108 -132 -58 -68
-113 -133 -123 -146 -18 -22 -17 -24 108 -219 70 -108 129 -203 132 -210 4
-11 -20 -14 -130 -14 l-136 0 -60 108 c-33 59 -64 114 -69 122 -8 13 -16 9
-46 -19 l-36 -35 0 -88 0 -89 -122 3 -123 3 -3 490 c-1 270 0 496 3 503 3 9
34 12 122 10 l118 -3 3 -257z m822 -2 l5 -259 82 106 c118 150 94 137 244 137
84 0 129 -4 129 -11 0 -5 -54 -73 -120 -149 -66 -76 -120 -143 -120 -149 0 -5
59 -100 130 -211 72 -111 130 -203 130 -206 0 -2 -62 -4 -137 -4 l-138 0 -70
126 -70 125 -32 -37 c-32 -36 -33 -40 -33 -126 l0 -88 -125 0 -125 0 0 505 0
506 123 -3 122 -3 5 -259z m-2700 74 l0 -89 83 -3 82 -3 3 -97 3 -97 -83 -3
-83 -3 0 -147 c0 -138 1 -149 21 -169 17 -16 35 -22 75 -23 l52 -1 18 -84 c10
-46 16 -87 14 -91 -3 -5 -37 -14 -77 -20 -126 -22 -237 5 -291 70 -54 64 -60
91 -66 285 l-6 180 -48 3 -48 3 3 92 3 92 47 3 c55 4 62 12 72 87 4 28 9 62
12 78 l6 27 104 0 104 0 0 -90z m814 -90 c2 -3 -5 -54 -16 -113 l-20 -108 -45
7 c-62 9 -126 -17 -158 -64 -25 -36 -25 -40 -25 -244 l0 -208 -130 0 -130 0 2
363 3 362 101 3 c98 3 102 2 108 -20 3 -13 6 -35 6 -49 0 -41 11 -41 46 0 52
60 105 83 186 79 37 -2 69 -6 72 -8z m521 -17 c119 -63 182 -206 165 -373 l-5
-55 -202 -5 -203 -5 20 -32 c43 -71 147 -82 271 -29 13 6 26 -9 59 -69 23 -42
40 -78 39 -80 -20 -19 -115 -57 -175 -71 -187 -41 -350 34 -428 196 -28 60
-31 73 -31 170 0 94 3 111 27 163 50 107 111 164 216 204 55 20 196 12 247
-14z m3994 18 c12 -8 11 -25 -4 -116 l-18 -106 -51 6 c-72 9 -132 -23 -163
-85 -22 -41 -23 -57 -23 -237 l0 -193 -125 0 -125 0 2 363 3 362 94 3 c52 1
98 -1 103 -6 5 -5 11 -32 15 -61 l6 -53 38 45 c51 59 109 87 179 87 30 0 61
-4 69 -9z m536 -18 c56 -29 118 -99 141 -159 15 -37 19 -75 19 -159 l0 -110
-202 -3 c-112 -1 -203 -6 -203 -11 0 -18 45 -64 76 -77 57 -24 128 -17 215 20
13 6 26 -10 59 -69 23 -42 40 -78 38 -80 -20 -19 -115 -57 -176 -71 -173 -39
-351 34 -420 173 -49 97 -55 263 -13 357 41 94 125 173 215 202 62 21 201 13
251 -13z m-2373 -133 c15 -80 32 -190 39 -244 8 -63 15 -93 20 -80 4 10 26
111 49 224 24 113 47 215 51 228 8 21 14 22 108 22 67 0 102 -4 108 -12 5 -7
31 -112 57 -233 27 -121 50 -227 53 -235 3 -8 14 41 24 110 11 69 29 179 42
245 l22 120 115 0 c96 0 115 -2 113 -15 -1 -8 -37 -171 -80 -362 l-78 -348
-147 0 c-131 0 -147 2 -152 18 -7 23 -63 315 -72 377 l-8 50 -13 -80 c-7 -44
-25 -144 -40 -222 l-27 -143 -146 0 -145 0 -86 358 c-47 196 -84 361 -82 365
3 4 59 6 126 5 l122 -3 27 -145z m1166 -217 l2 -363 -125 0 -125 0 0 358 c0
197 3 362 7 366 4 3 59 5 122 4 l116 -3 3 -362z m322 -560 c0 -5 -31 -42 -69
-83 l-69 -75 -59 58 -59 57 -39 -40 -39 -40 57 -58 58 -59 -62 -57 c-129 -119
-398 -314 -418 -302 -5 4 -24 32 -42 64 -18 31 -34 59 -36 62 -6 7 -93 -43
-93 -53 0 -5 16 -35 35 -67 19 -32 35 -62 35 -67 0 -11 -222 -119 -325 -158
-71 -27 -214 -75 -226 -75 -4 0 -15 32 -24 70 -9 39 -22 73 -27 76 -14 9 -98
-17 -98 -30 0 -6 9 -42 19 -79 15 -50 17 -69 8 -72 -58 -20 -348 -65 -415 -65
l-47 0 -90 180 c-49 99 -93 180 -97 180 -4 0 -48 -81 -98 -180 l-90 -180 -45
0 c-50 0 -207 22 -332 47 -94 18 -94 17 -68 113 8 30 15 58 15 61 0 6 -78 29
-97 29 -5 0 -17 -34 -28 -76 -19 -75 -19 -76 -47 -70 -101 20 -528 206 -528
229 0 6 16 39 36 74 20 36 34 66 32 67 -18 13 -81 46 -88 46 -4 0 -25 -29 -45
-65 -20 -36 -39 -65 -42 -65 -41 0 -473 335 -473 366 0 5 24 32 52 61 l52 53
-37 37 -37 37 -54 -53 c-30 -29 -58 -52 -63 -50 -14 6 -133 140 -133 150 0 5
872 9 2120 9 1166 0 2120 -3 2120 -7z"/>
<path d="M5312 5540 c-47 -29 -72 -76 -72 -135 0 -90 48 -150 130 -165 104
-19 192 57 192 166 0 117 -148 196 -250 134z"/>
<path d="M3695 4386 c-34 -15 -50 -31 -59 -63 -7 -23 -6 -23 93 -23 64 0 101
4 101 10 0 25 -33 72 -56 80 -32 13 -42 12 -79 -4z"/>
<path d="M8224 4386 c-32 -14 -64 -51 -64 -73 0 -10 25 -13 95 -13 93 0 95 0
95 24 0 56 -67 89 -126 62z"/>
</g>
</svg>
