<svg width="248" height="63" viewBox="0 0 248 63" fill="none" xmlns="http://www.w3.org/2000/svg">
<path d="M205.282 35.7059C204.588 36.0528 203.913 36.4217 203.193 36.7356C202.992 36.8258 202.593 36.8418 202.388 36.7625C201.646 36.4816 200.891 36.1779 200.764 35.5109C200.711 35.2368 200.519 35.0227 200.203 34.8565C199.347 34.4072 198.873 33.7749 198.395 33.1308C197.491 31.9086 196.673 30.6708 196.307 29.3098C196.238 29.0545 196.14 28.795 196.144 28.5388C196.147 28.3523 196.212 28.1199 196.383 27.9879C197.542 27.118 198.765 26.2964 200.374 25.8141C200.444 25.7919 200.614 25.8146 200.632 25.8492C200.694 25.9543 200.791 26.1006 200.731 26.1841C200.433 26.5913 200.088 26.982 199.763 27.3784L199.74 27.3668C200.718 27.0783 201.562 26.641 202.365 26.17C205.796 24.1582 209.424 22.3375 213.307 20.754C214.204 20.3857 215.031 19.9293 215.871 19.4957C215.975 19.4421 216.018 19.2514 215.964 19.1573C215.902 19.055 215.71 18.9482 215.554 18.9262C214.602 18.794 213.656 18.8874 212.716 19.046C210.671 19.387 208.609 19.6934 206.575 20.0639C202.043 20.8926 197.507 21.7251 193 22.6061C190.238 23.147 187.508 23.7609 184.779 24.3747C181.131 25.1906 177.406 25.7903 173.696 26.444C171.654 26.8034 169.624 27.1732 167.705 27.7971C166.929 28.0487 166.094 28.2165 165.267 28.3798C163.335 28.7633 161.403 29.1468 159.459 29.4883C156.769 29.9625 154.139 30.5583 151.534 31.2219C149.563 31.7228 147.526 32.097 145.432 32.3082C144.758 32.3774 144.112 32.0445 143.462 32.2888C142.958 32.4783 142.518 32.7634 141.993 32.897C140.649 33.2425 139.297 33.5896 137.909 33.8268C135.305 34.2728 132.716 34.7224 130.243 35.469C129.198 35.7855 128.059 35.9521 126.953 36.1597C124.834 36.5585 122.7 36.9345 120.58 37.3333C119.196 37.5949 117.832 37.8969 116.543 38.3493C115.6 38.6818 114.584 38.8951 113.517 38.9099C112.829 38.9186 112.207 39.0509 111.574 39.2166C109.963 39.6456 108.33 39.9935 106.581 40.0568C105.831 40.0831 105.082 40.2574 104.353 40.4123C103.257 40.6464 102.173 40.9101 101.106 41.1929C100.666 41.3077 100.262 41.4948 99.8635 41.6713C99.0452 42.041 98.1318 42.3177 97.1884 42.3319C95.4161 42.3585 93.8402 42.8442 92.2088 43.195C90.475 43.5675 88.7855 44.0329 87.0827 44.4629C86.6123 44.5832 86.1469 44.5703 85.6762 44.4827L85.7099 44.4986C84.5328 44.9305 83.343 45.2922 81.9589 45.2859C80.8113 45.2838 79.722 45.5579 78.7105 45.9281C78.0268 46.1787 77.3223 46.3134 76.56 46.3923C74.7776 46.5752 73.0473 46.8715 71.4284 47.4626C70.348 47.858 69.1834 48.1521 68.0471 48.4726C67.6145 48.5955 67.151 48.7461 66.7019 48.7522C65.8276 48.7665 65.041 48.9761 64.2144 49.1046C63.6789 49.1864 63.095 49.1162 62.5314 49.1117C62.444 49.1119 62.3566 49.112 62.268 49.1092C62.3618 49.1016 62.4556 49.094 62.5527 49.0826C62.0758 49.2956 61.6367 49.5962 61.1155 49.7037C58.8377 50.1722 56.624 50.7741 54.2588 51.0599C52.1987 51.3123 50.1915 51.7536 48.2991 52.4009C47.7034 52.604 47.0704 52.7571 46.467 52.9521C45.9336 53.1249 45.3882 53.2054 44.8054 53.1256C43.9252 53.0023 43.1035 53.1803 42.2962 53.3841C41.2241 53.655 40.1588 53.9437 39.1044 54.2492C37.696 54.6539 36.2879 54.9986 34.7481 55.153C33.1414 55.3134 31.6817 55.8629 30.3506 56.5088C29.6894 56.831 29.0971 57.0429 28.2527 56.8438C27.6064 56.6936 26.9295 56.8767 26.3207 57.0696C25.7162 57.2616 25.1425 57.4985 24.5611 57.7274C24.0593 57.9228 23.5348 58.0341 22.9503 58.0838C21.3292 58.2184 19.7704 58.5055 18.4444 59.2135C17.9734 59.4664 17.4117 59.5277 16.8657 59.6429C16.422 59.7364 16.0271 59.9344 15.61 60.0861L15.6436 60.1019C14.8636 59.9635 14.1309 60.0844 13.431 60.3285C12.9869 60.4819 12.5155 60.5993 12.0698 60.4315C11.3974 60.1758 10.7898 60.2864 10.1573 60.4773C9.19655 60.7626 8.21287 61.0238 7.27303 61.34C5.85896 61.815 4.37486 61.9341 2.83571 61.8709C2.17747 61.7135 2.36882 61.1838 1.97381 60.9185C1.56795 60.6489 1.07744 60.4356 0.690899 60.1561C0.437193 59.9723 0.282019 59.72 0.103352 59.491C-0.111493 59.2149 0.0193019 58.7688 0.404006 58.6168C0.977867 58.3925 1.57243 58.1864 2.1847 58.015C2.79697 57.8436 3.51168 57.8457 4.01177 57.4993C4.1221 57.4256 4.14633 57.2826 4.16766 57.1684C4.17375 57.1357 4.03357 57.0573 3.96017 57.058C3.58023 57.0642 3.20058 57.0955 2.82495 57.1009C2.38884 57.1047 2.05335 56.8507 2.18011 56.6132C2.40516 56.1972 2.84241 55.8307 2.65187 55.3264C2.60841 55.2114 2.91103 54.9641 3.13354 54.8826C5.31672 54.0783 7.47203 53.2002 10.0006 53.0296C10.7729 52.9771 11.4959 52.8549 12.2172 52.6794C13.6554 52.3292 15.1068 52.0017 16.545 51.6515C17.2792 51.4736 18.0007 51.4084 18.786 51.4513C19.4267 51.489 20.0905 51.3807 20.7819 51.3335C20.5387 51.0311 20.5867 50.7072 20.8173 50.6715C21.0037 50.6407 21.1855 50.5855 21.3722 50.5799C21.9389 50.568 22.5045 50.5658 23.0735 50.5725C23.5454 50.578 24.0199 50.6271 24.4915 50.6074C25.1616 50.5767 25.8015 50.4664 26.2981 50.0986C26.5528 49.9072 26.9031 49.774 27.1644 49.5878C27.7489 49.1724 28.4866 49.1011 29.2605 49.0893L29.2268 49.0734C29.438 49.0349 29.6491 48.9965 29.8602 48.958L29.8379 48.9842C30.222 48.6841 30.654 48.4258 31.239 48.3286C31.8899 48.2227 32.5439 48.113 33.2015 48.0373C34.063 47.9403 34.8248 47.7258 35.5877 47.4167C37.0801 46.8075 38.7648 46.4881 40.4598 46.3054C41.4291 46.2013 42.3022 46.0864 43.0829 45.6416C43.6138 45.34 44.296 45.2441 44.983 45.368C45.4774 45.4576 45.9392 45.4364 46.3416 45.2213C47.5538 44.5655 49.0126 44.5015 50.431 44.489C51.5461 44.4781 52.4805 44.3426 53.3087 43.804C53.8894 43.4272 54.6448 43.3053 55.4407 43.3274C56.0228 43.3443 56.5925 43.3161 57.1116 43.1176C57.2567 43.0628 57.4687 42.917 57.4431 42.8492C57.3216 42.5278 57.4956 42.3542 57.9342 42.2838C60.156 41.9232 62.396 41.6349 64.6482 41.3791C64.9264 41.3473 65.2449 41.3492 65.4693 41.2484C66.8935 40.6171 68.5823 40.6498 70.1278 40.3399C70.479 40.2696 70.8789 40.304 71.2548 40.3237C72.253 40.3814 73.185 40.2274 73.9224 39.7653C74.6597 39.3032 75.5293 39.0817 76.4369 38.8628C77.8762 38.5155 79.3662 38.2536 80.6896 37.6847C81.2643 37.4382 81.9635 37.4116 82.6394 37.4209C83.2365 37.4287 83.7836 37.3165 84.2471 37.0681C84.8769 36.7359 85.5856 36.6005 86.3553 36.5044C88.3282 36.2648 90.238 35.8949 92.1123 35.3581C94.0577 34.802 96.0197 34.2901 97.8782 33.6017C98.2942 33.4471 98.7494 33.3232 99.2105 33.2392C101.799 32.7645 104.339 32.1852 106.872 31.5882C107.688 31.3954 108.497 31.1946 109.389 31.3126C110.165 31.417 110.906 31.2694 111.644 31.1255C114.59 30.5479 117.542 30.0103 120.446 29.3236C123.614 28.5764 126.853 27.9831 130.07 27.3435C131.818 26.9967 133.57 26.6713 135.253 26.1757C135.866 25.9947 136.524 25.8841 137.165 25.7516C139 25.3795 140.839 25.0163 142.676 24.65C143.597 24.4665 144.478 24.2494 145.215 23.7747C145.851 23.3625 146.709 23.1937 147.532 23.0215C150.001 22.4962 152.49 22.027 155.07 21.8344C158.415 21.5812 161.614 20.8819 164.825 20.2245C166.931 19.7904 169.013 19.2913 171.12 18.8571C174.329 18.1968 177.547 17.5572 180.768 16.9294C184.358 16.2281 187.964 15.5681 191.479 14.6945C192.739 14.3831 194.051 14.1755 195.332 13.9076C197.203 13.5195 197.2 13.5137 199.135 12.222C198.878 12.127 198.648 12.005 198.393 11.9536C197.661 11.8066 196.903 11.7145 196.182 11.5496C194.882 11.2537 193.788 10.7848 193.174 9.87859C192.942 9.53314 192.485 9.26337 192.15 8.94934C191.177 8.02988 190.489 7.0519 190.805 5.8533C190.873 5.60467 190.853 5.3214 190.756 5.07743C190.415 4.20985 190.817 3.39597 191.076 2.57025C191.626 2.17374 191.429 1.73691 191.281 1.28476C191.177 0.960188 191.609 0.616686 192.046 0.568464C193.526 0.399867 194.885 0.694362 196.214 1.07946C196.649 1.2052 197.023 1.42705 197.452 1.56321C198.751 1.96638 200.028 2.40829 201.41 2.67664C202.414 2.87194 203.386 3.14231 204.369 3.37929L204.337 3.36628C205.049 3.52022 205.741 3.7314 206.47 3.81929C210.078 4.26209 213.692 4.67222 217.304 5.10165C217.96 5.18068 218.607 5.22357 219.263 5.10721C219.64 5.34753 220.094 5.31839 220.551 5.27293C220.918 5.48966 221.351 5.50211 221.802 5.45154C222.166 5.672 222.591 5.69868 223.046 5.63474C223.415 5.85737 223.852 5.86616 224.309 5.80812C225.032 6.25947 225.891 6.28905 226.795 6.17158L226.779 6.19027C225.999 5.90677 225.182 5.74355 224.284 5.84097C223.916 5.62129 223.487 5.59539 223.025 5.66385C222.662 5.4367 222.228 5.4338 221.778 5.48438C221.409 5.27727 220.976 5.26475 220.53 5.30196C220.131 5.12552 219.709 5.06701 219.24 5.14294C218.788 4.9478 218.337 4.7527 217.886 4.55756L217.867 4.57998C219.113 4.36865 220.331 4.56909 221.532 4.72533C223.766 5.01812 225.979 5.37776 228.218 5.66013C230.076 5.89541 231.884 6.3162 233.708 6.67097C234.444 6.8143 235.133 7.02919 235.634 7.45178C235.251 7.512 234.87 7.57516 234.487 7.63539C234.062 7.58356 233.643 7.53391 233.218 7.48208C232.973 7.38175 232.733 7.28363 232.488 7.1833C232.082 7.12165 231.681 7.05921 231.276 7.0005C230.858 6.94121 230.444 6.88112 230.025 6.82182C229.6 6.77 229.174 6.71522 228.749 6.66339L228.762 6.64845C229.191 6.69949 229.62 6.74757 230.049 6.79861C230.467 6.85791 230.886 6.91722 231.3 6.9773C231.705 7.03895 232.107 7.1014 232.512 7.16305C232.757 7.26338 232.997 7.36157 233.241 7.45895C233.666 7.51078 234.09 7.55965 234.515 7.61148C234.928 7.70635 235.324 7.74141 235.604 7.43504C236.104 7.41652 236.53 7.52163 236.89 7.7651C237.328 8.06028 237.871 8.14421 238.465 8.0581C239.024 7.97827 239.575 7.87481 240.134 7.79497C240.811 7.6969 241.482 7.75435 242.078 7.96723C242.911 8.26941 243.727 8.59985 244.498 8.97003C245.049 9.23518 245.458 9.64619 245.541 10.0975C245.795 11.4412 246.271 12.7854 245.535 14.1423C246.136 14.6949 246.689 15.2087 247.261 15.7349C247.262 16.0909 246.839 16.2751 246.493 16.4926C246.118 16.7215 245.901 17.0006 245.855 17.3401L245.877 17.3265C245.536 17.5336 245.196 17.7407 244.849 17.9456L244.867 17.9202C244.329 18.2515 243.673 18.3427 242.996 18.2706C242.103 18.1748 241.34 18.361 240.524 18.5915C238.657 19.1209 237.038 19.9452 235.257 20.5692C234.24 20.9247 233.237 21.3059 232.247 21.6974C230.924 22.2189 229.604 22.7463 228.306 23.2979C226.602 24.018 224.981 24.846 223.208 25.4684C221.919 25.9207 220.747 26.4399 219.652 27.0774C219.146 27.3714 218.531 27.5716 217.981 27.8357C216.34 28.6232 214.706 29.4188 213.08 30.2225C212.696 30.4123 212.289 30.6156 212.013 30.8738C210.867 31.9463 209.271 32.6846 207.881 33.5776C207.185 34.026 206.448 34.4533 206.258 35.1436L206.292 35.0995C205.946 35.3074 205.601 35.5153 205.26 35.7224L205.282 35.7059ZM207.399 28.8273L207.442 28.8446C207.011 28.9453 206.705 29.1491 206.472 29.4091L206.45 29.4004C206.823 29.2537 207.208 29.1142 207.399 28.8273ZM201.264 10.8351C201.346 10.8453 201.429 10.8585 201.511 10.8688C201.423 10.866 201.33 10.8639 201.242 10.8641C201.167 10.8338 201.101 10.7953 201.021 10.7784C200.966 10.7664 200.893 10.7923 200.83 10.7974C200.973 10.8092 201.121 10.8232 201.264 10.8351ZM204.341 11.0813C204.427 11.1004 204.512 11.1195 204.597 11.1356C204.505 11.124 204.41 11.1161 204.318 11.1045C204.241 11.0964 204.17 11.0905 204.093 11.0824C204.177 11.086 204.259 11.0836 204.341 11.0813ZM206.663 7.81538C206.703 7.95929 206.739 8.10107 206.779 8.24498C206.701 8.28132 206.605 8.30821 206.55 8.35911C206.306 8.57703 206.326 8.78778 206.561 8.84898C207.277 9.03987 208.024 9.06462 208.78 9.01827C209.374 8.98247 209.875 9.09944 210.359 9.33272C210.77 9.53198 211.234 9.50419 211.708 9.39269C212.153 9.28962 212.61 9.21898 213.065 9.13283L213.016 9.11333C213.836 9.32017 214.667 9.484 215.55 9.46815L215.534 9.48684C215.743 9.19971 216.087 9.01109 216.512 8.89269C216.589 8.92593 216.662 8.97253 216.743 8.99241C216.803 9.00658 216.881 8.97989 216.948 8.97401C216.794 8.95785 216.64 8.93875 216.49 8.9218C214.723 8.33921 212.838 8.20337 210.903 8.26273L210.94 8.27495C210.533 8.21998 210.121 8.16581 209.713 8.11084C209.119 7.91645 208.503 8.00352 207.885 8.04029C207.473 7.97352 207.062 7.90969 206.647 7.84666C206.567 7.84231 206.483 7.83876 206.403 7.83441C206.487 7.8254 206.576 7.8185 206.663 7.81538ZM236.441 19.0959C236.361 19.1167 236.277 19.1257 236.206 19.1575C236.155 19.1795 236.122 19.2265 236.08 19.2625C236.186 19.2022 236.297 19.1411 236.403 19.0808C236.67 18.9944 236.723 18.9279 236.563 18.9318C236.526 18.9322 236.483 19.0377 236.441 19.0959ZM72.4436 44.1037C70.9251 43.9612 70.9241 43.9708 70.1968 44.3617C70.9837 44.2625 71.7232 44.1719 72.4616 44.0784C72.6598 44.0423 72.858 44.0062 73.052 43.9708C73.7142 43.9195 74.3888 43.9007 75.0354 43.8081C75.7791 43.7042 76.552 43.6043 77.2219 43.3783C78.3445 42.9973 79.4974 42.7085 80.7063 42.5072C81.2612 42.4155 81.83 42.3119 82.3266 42.1269C83.5101 41.6875 84.7558 41.4008 86.0576 41.2015C86.1233 41.1926 86.2086 41.1014 86.2112 41.0473C86.2192 40.8978 86.0712 40.7987 85.8548 40.8476C83.6788 41.3417 81.438 41.6521 79.2083 41.9921C78.9734 42.0286 78.8257 41.9546 78.8405 41.8353C78.8474 41.7805 78.9081 41.7095 78.9758 41.6815C80.6998 40.9419 82.6257 40.5659 84.5516 40.1898C86.7478 39.7614 88.9483 39.3321 91.3213 38.8715C90.3512 38.7299 89.6568 38.9887 88.9436 39.1123C87.7714 39.3133 86.6487 39.3161 85.6606 38.8342C84.7865 38.4104 83.913 38.4024 82.9624 38.6291C82.62 38.7104 82.2755 38.7857 81.3495 38.9923C82.3979 38.9147 82.8498 38.8797 83.2975 38.8455C83.5304 38.8282 83.6888 38.8939 83.7003 39.0463C83.7041 39.0929 83.6014 39.1746 83.525 39.1917C82.9823 39.3158 82.4352 39.428 81.8947 39.5454C81.3314 39.6638 80.8731 39.8891 80.4717 40.1797L80.4972 40.1499C79.1753 39.9179 77.8803 39.9646 76.5411 40.1991C73.2972 40.768 70.0276 41.269 66.9279 42.1709C66.5793 42.2722 66.2 42.3288 65.8305 42.3992C61.5919 43.2123 57.3511 44.0196 53.1136 44.8356C52.1 45.0297 51.0897 45.2326 50.0839 45.4474C49.8158 45.5057 49.5654 45.6111 49.3161 45.707C48.7293 45.9336 48.6587 46.5391 49.1552 46.8899C49.5144 47.146 49.952 47.268 50.4411 47.1852C51.8299 46.9479 53.2119 46.6804 54.5951 46.4284C57.3691 45.92 60.1442 45.4145 62.9138 44.9068C63.7584 44.7529 64.5246 44.5377 65.058 43.9993C65.3013 43.7533 65.7078 43.8053 66.0365 44.0291C66.3771 44.2601 66.7701 44.1665 67.0704 43.9983C67.36 43.8384 67.5949 43.6191 67.8137 43.4059C68.6869 42.5597 70.0066 42.4202 71.355 42.3321C71.5168 42.3215 71.7466 42.3932 71.8534 42.4809C72.2023 42.7703 72.6209 42.8422 73.1272 42.7437C73.4966 42.6732 73.865 42.5998 74.2346 42.542C74.6818 42.47 75.0441 42.5269 74.9547 42.6314C74.8695 42.7352 74.7554 42.8599 74.607 42.9059C73.8929 43.1368 73.2384 43.3916 73.065 43.9811C72.8691 44.0231 72.6579 44.0615 72.4436 44.1037ZM44.9045 49.5238C43.7455 49.7475 42.5822 49.972 41.4265 50.2046C41.3457 50.2225 41.2973 50.3259 41.1309 50.4949C42.5288 50.2087 43.8405 50.121 44.8751 49.5071C46.2311 49.2317 47.5925 48.9586 48.9451 48.6743C49.0259 48.6565 49.0678 48.548 49.313 48.2827C47.6581 48.7543 46.1163 48.8303 44.9045 49.5238ZM91.5145 37.7741C91.4513 37.814 91.3838 37.8546 91.3205 37.8945C91.3772 37.8495 91.4297 37.8054 91.4863 37.7604C92.0464 37.8285 92.6107 37.8959 93.1718 37.967C93.9394 38.0605 94.6946 38.0112 95.4367 37.8665C97.0879 37.5437 98.7335 37.206 100.379 36.8684C100.464 36.8498 100.528 36.7877 100.6 36.7462C100.447 36.7079 100.281 36.6216 100.14 36.6378C99.3885 36.7211 98.6474 36.8562 97.8978 36.9202C97.6476 36.9406 97.359 36.823 97.114 36.7352C96.7833 36.6158 96.7698 36.2021 97.0305 36.0632C97.5788 35.7711 98.2132 35.6461 98.8729 35.5637C99.8065 35.4504 100.727 35.3269 101.652 34.9472C100.83 34.8669 100.21 35.0681 99.5734 35.1872C98.2829 35.4286 97.0046 35.6898 95.7317 35.9658C95.3527 36.0475 95.1685 36.2669 95.0422 36.5421C94.6424 37.4344 94.5489 37.4672 93.2797 37.4116C92.9946 37.4005 92.7111 37.345 92.4316 37.3612C92.0324 37.3772 91.744 37.5526 91.5145 37.7741ZM174.525 25.0765L174.548 25.0533C174.363 25.0871 174.181 25.1422 173.994 25.1479C172.256 25.203 170.645 25.5469 169.069 26.0577C168.212 26.3367 167.278 26.4974 166.365 26.689C165.656 26.837 164.931 26.9534 164.095 27.1056C164.316 27.1662 164.404 27.2164 164.485 27.2111C165.62 27.1305 166.756 27.0431 167.893 26.9558C168.081 26.9405 168.271 26.9186 168.456 26.8975C168.549 26.8869 168.647 26.8784 168.735 26.856C169.18 26.7404 169.618 26.6071 170.07 26.5121C170.433 26.4365 170.811 26.377 171.184 26.3658C172.645 26.3173 173.953 25.9025 175.299 25.5784C175.468 25.5382 175.646 25.4489 175.742 25.3495C175.834 25.2508 175.895 25.0948 175.85 24.9894C175.808 24.89 175.627 24.7749 175.475 24.7521C175.059 24.6861 174.781 24.8784 174.525 25.0765ZM30.564 50.8691L30.5427 50.8982C32.2565 50.5702 33.9613 50.2187 35.6819 49.921C36.6117 49.7611 37.4553 49.5192 38.191 49.1015C39.3053 48.93 40.405 48.7202 41.5425 49.0489C41.7808 49.1189 42.1196 49.1013 42.3813 49.0505C44.11 48.7009 45.833 48.3366 47.5538 47.9664C47.8478 47.9034 48.0605 47.54 47.9929 47.3002C47.8173 46.6892 47.1873 46.3627 46.3642 46.5C45.1639 46.6998 43.9735 46.9261 42.7866 47.1612C42.2427 47.2697 41.6348 47.3552 41.2057 47.5847C40.3313 48.0497 39.3265 48.1697 38.3061 48.3335C37.1995 48.513 36.1186 48.773 35.0244 48.9976C34.7379 49.056 34.6955 49.1268 34.9179 49.2155C35.6456 49.1302 36.3837 49.0115 37.1368 48.9689C37.4928 48.9481 37.8645 49.0664 38.23 49.1196C36.6592 49.3869 35.085 49.6578 33.5108 49.9162C33.0507 49.9906 32.5799 50.0732 32.1116 50.0891C30.2803 50.1548 28.5616 50.5309 26.8011 50.9179C26.8669 51.1895 26.9742 51.4127 26.6314 51.639C26.2704 51.8781 26.3616 52.0097 26.6565 52.3027C26.899 52.5422 27.1971 52.6486 27.6122 52.6014C27.7049 52.5908 27.8009 52.5764 27.8902 52.557C28.798 52.3633 29.7102 52.1687 30.6158 51.9691C30.662 51.9575 30.695 51.9105 30.7635 51.8602C30.1864 51.9055 29.6363 51.9489 29.0872 51.9828C29.0063 51.988 28.8514 51.9438 28.8478 51.9098C28.8314 51.8056 28.8069 51.6431 28.8885 51.603C29.4317 51.3464 30.0011 51.1103 30.564 50.8691ZM107.228 35.334C106.663 35.3236 106.091 35.3236 105.53 35.2998C105.155 35.283 104.766 35.1679 104.413 35.2101C103.39 35.3302 102.353 35.4247 101.354 35.6823C101.484 35.8445 101.531 35.9809 101.656 36.0433C101.879 36.1571 102.142 36.2447 102.408 36.313C102.581 36.3571 102.786 36.3764 102.967 36.356C104.288 36.2194 105.601 36.0496 106.777 35.577C106.937 35.5132 107.061 35.4023 107.199 35.3172C107.746 35.205 108.282 35.0507 108.841 34.9834C112.051 34.5911 115.181 34.0145 118.188 33.1232C118.536 33.0189 118.906 32.9136 119.275 32.8905C120.346 32.8246 121.313 32.5792 122.247 32.2231C122.653 32.0672 123.152 32.0235 123.614 31.9424C124.357 31.8104 125.116 31.7226 125.838 31.5626C130.749 30.4694 135.819 29.7349 140.642 28.4339C140.998 28.3377 141.379 28.2997 141.749 28.2292C143.687 27.8605 145.621 27.4955 147.552 27.109C147.908 27.038 148.233 26.8873 148.558 26.7588C148.602 26.7413 148.613 26.648 148.594 26.5978C148.574 26.5448 148.5 26.4604 148.445 26.461C148.074 26.453 147.681 26.4142 147.327 26.4756C144.918 26.9018 142.516 27.3457 140.119 27.7918C139.099 27.9808 138.114 28.2264 137.25 28.6706C136.783 28.91 136.218 28.9751 135.676 29.0992C134.055 29.4669 132.239 29.3281 130.746 30.0224C130.527 30.1253 130.194 30.1451 129.915 30.1391C128.936 30.1189 128.024 30.326 127.112 30.5079C124.72 30.9813 122.338 31.4658 119.954 31.9569C119.496 32.0497 119.039 32.158 118.61 32.3024C117.31 32.7378 115.943 32.9837 114.524 33.1635C112.361 33.4377 110.24 33.8586 108.199 34.4416C107.599 34.6078 107.299 34.9114 107.228 35.334ZM215.888 26.0612L215.858 26.0918C216.301 26.0458 216.766 26.0461 217.179 25.9426C217.683 25.816 218.146 25.6025 218.623 25.4273C219.243 25.201 219.643 25.396 219.957 25.7517C219.883 25.7746 219.801 25.7896 219.74 25.8228C219.694 25.8469 219.67 25.8923 219.633 25.9305C219.729 25.8658 219.825 25.8041 219.925 25.7386C220.293 25.6778 220.813 25.6273 220.812 25.3438C220.813 24.5778 221.518 24.1782 222.309 23.7976C222.383 23.7621 222.487 23.7307 222.574 23.7306C222.758 23.7286 222.995 23.7106 223.108 23.7783C223.209 23.8386 223.239 24.0159 223.196 24.1215C223.133 24.2842 222.982 24.4316 222.838 24.6248C223.797 24.589 224.449 24.281 224.669 23.7524C224.929 23.1251 225.403 22.733 226.258 22.4606C226.763 22.2992 227.193 22.0098 227.613 21.7441C227.814 21.6192 227.929 21.4219 228.061 21.2466C228.098 21.1989 228.084 21.1131 228.039 21.0677C228.005 21.0266 227.87 20.9851 227.824 20.9996C227.406 21.1483 227.014 21.33 226.583 21.4558C226.459 21.4941 226.187 21.4208 226.087 21.3382C225.994 21.2636 225.964 21.0737 226.04 20.9937C226.538 20.4838 227.277 20.1978 228.207 19.9653C229.751 20.346 231.404 20.6123 233.098 20.2187C233.552 19.8616 233.996 19.5254 234.411 19.1725C234.519 19.0804 234.59 18.9257 234.57 18.8126C234.55 18.7122 234.377 18.5452 234.271 18.5456C234.003 18.5439 233.728 18.6068 233.466 18.6702C232.399 18.9307 231.445 19.404 230.283 19.4864C230.225 19.4907 230.129 19.4199 230.1 19.3684C230.071 19.3139 230.07 19.2036 230.115 19.1862C230.607 18.9893 231.108 18.8036 231.608 18.6178C232.449 18.307 233.311 18.0176 233.93 17.4982C234.021 17.4218 234.022 17.2419 233.954 17.1471C233.886 17.0524 233.685 16.9945 233.523 16.9451C233.45 16.9207 233.333 16.9419 233.243 16.9584C233.058 16.9921 232.865 17.0179 232.705 17.0817C229.977 18.1648 227.227 19.2236 224.534 20.3478C220.7 21.9508 216.802 23.4835 213.153 25.2955C212.05 25.8399 211.055 26.4245 210.204 27.1343C210.103 27.219 210.042 27.4002 210.108 27.4765C210.181 27.5608 210.443 27.6329 210.591 27.6091C211.051 27.5348 211.491 27.3948 211.948 27.3242C212.057 27.3075 212.266 27.4459 212.349 27.5442C212.44 27.6506 212.435 27.7965 212.473 27.9219C212.401 27.9382 212.321 27.9464 212.262 27.9729C212.215 27.9942 212.191 28.0395 212.156 28.071C212.251 28.016 212.344 27.958 212.438 27.903C213.938 27.6046 215.018 26.9288 215.888 26.0612ZM158.425 24.7659L158.386 24.7478C161.427 24.1655 164.482 23.6089 167.504 22.9891C169.89 22.5009 172.23 21.9171 174.607 21.4054C175.424 21.2281 176.274 21.1238 177.115 21.0114C177.234 20.9961 177.473 21.1165 177.512 21.2071C177.554 21.3066 177.488 21.4857 177.374 21.5505C176.609 21.9863 175.631 22.0919 174.715 22.2398C173.036 22.5141 171.389 22.8488 169.756 23.2314C166.857 23.9077 163.978 24.6274 161.023 25.191C160.511 25.2874 159.949 25.311 159.452 25.6537C159.925 25.5896 160.3 25.5465 160.668 25.4827C165.116 24.7007 169.515 23.7764 174.023 23.1507C174.859 23.0362 175.681 22.8234 176.458 22.5747C179.349 21.6447 182.404 21.1355 185.538 20.8135C186.097 20.7558 186.663 20.6464 187.171 20.4783C188.745 19.9645 190.397 19.6416 192.113 19.4928C193.273 19.3919 194.363 19.1807 195.318 18.6979C196.107 18.2989 197.012 18.0992 197.944 17.9326C201.464 17.3009 204.979 16.6574 208.493 16.011C209.419 15.8422 210.332 15.6477 211.252 15.4642C212.075 15.3017 212.916 15.1738 213.676 14.881C211.423 15.2093 209.183 15.5575 206.97 15.9669C205.476 16.2422 203.892 16.1462 202.455 16.4616C201.009 16.7787 199.653 17.2997 198.165 17.5647C195.475 18.0419 192.802 18.5479 190.106 19.0074C188.155 19.3408 186.202 19.6461 184.383 20.28C183.72 20.5112 182.925 20.5646 182.181 20.6812C182.011 20.7059 181.812 20.6539 181.632 20.6173C181.557 20.6025 181.485 20.5463 181.44 20.4979C181.326 20.3674 181.39 20.2579 181.58 20.1634C182.229 19.8436 182.995 19.789 183.736 19.6636C186.427 19.2048 189.183 18.892 191.653 17.9441C191.898 17.849 192.185 17.7934 192.461 17.7432C195.14 17.252 197.83 16.7777 200.503 16.2688C202.99 15.7937 205.464 15.2831 207.938 14.7726C208.066 14.7461 208.199 14.5989 208.225 14.4965C208.257 14.3615 208.072 14.2502 207.851 14.2873C204.964 14.7533 202.071 15.2016 199.199 15.7059C197.16 16.0646 195.152 16.5029 193.121 16.8948C192.568 17.002 192.008 17.104 191.442 17.1439C191.083 17.1684 190.646 17.1441 190.347 17.0251C189.716 16.7681 189.104 16.7316 188.428 16.883C187.346 17.1274 186.265 17.3747 185.226 17.6113C184.997 18.5514 184.937 18.6127 184.018 18.8273C183.747 18.8893 183.465 18.947 183.186 18.9632C183.032 18.9722 182.867 18.8888 182.704 18.8461C182.776 18.7321 182.876 18.6193 182.909 18.4998C182.941 18.39 182.914 18.2688 182.874 18.1627C182.863 18.1332 182.703 18.0993 182.625 18.1134C182.163 18.1945 181.691 18.2616 181.252 18.3794C180.098 18.6904 178.958 19.0243 177.777 19.3622C177.755 19.4609 177.868 19.4937 178.129 19.4999C178.286 19.5027 178.445 19.5935 178.602 19.6437C178.479 19.7323 178.375 19.8711 178.226 19.9045C176.485 20.269 174.752 20.6445 172.991 20.9559C171.782 21.1698 170.592 21.3961 169.44 21.7382C167.942 22.1845 166.376 22.4887 164.765 22.675C164.712 22.6814 164.587 22.6065 164.581 22.5666C164.574 22.5112 164.659 22.4547 164.696 22.3944C164.768 22.2804 164.891 22.1666 164.889 22.0534C164.892 21.9016 164.49 21.8015 164.187 21.8535C164.001 21.8843 163.808 21.8974 163.633 21.9451C163.279 22.0443 162.9 22.126 162.603 22.2808C162.175 22.5006 161.529 22.4858 161.247 22.8714C161.356 22.8799 161.457 22.8803 161.547 22.8986C161.721 22.9331 161.967 22.9483 162.044 23.0318C162.157 23.1469 162.01 23.2712 161.79 23.3209C160.884 23.5205 159.911 23.5907 159.089 23.9612C158.651 24.1448 158.451 24.4178 158.425 24.7659ZM182.238 23.4161C182.642 23.7175 183.143 23.5191 183.586 23.5204C184.148 23.522 184.726 23.4671 185.276 23.3733C187.404 23.0078 189.513 22.6047 191.642 22.2421C193.035 22.004 194.38 21.677 195.69 21.2778C195.905 21.2133 195.969 21.1039 195.868 20.9932C195.823 20.9477 195.708 20.8994 195.632 20.9068C194.408 21.032 193.19 21.1594 191.973 21.3023C191.695 21.3341 191.413 21.4044 191.169 21.5025C189.476 22.1669 187.609 22.4187 185.72 22.6242C185.159 22.6855 184.591 22.7669 184.054 22.8961C183.443 23.0453 182.749 23.074 182.238 23.4161ZM141.898 29.1003C141.941 29.1524 141.988 29.2038 142.031 29.2559C145.689 28.5894 149.352 27.9222 153.009 27.2528C153.19 27.2199 153.369 27.1684 153.537 27.1126C153.61 27.0867 153.713 27.0302 153.714 26.9857C153.719 26.8399 153.558 26.7557 153.336 26.812C149.857 27.6853 146.233 28.2004 142.677 28.8828C142.406 28.9322 142.155 29.0251 141.898 29.1003ZM99.8836 38.0556C97.1516 38.3705 93.5891 39.0226 91.6704 39.5518C92.4828 39.6906 93.17 39.3763 93.9134 39.3323C94.7646 39.2812 95.6159 39.2428 96.4569 39.1526C96.9173 39.1034 97.3813 38.9905 97.8028 38.8507C98.4652 38.6291 99.0958 38.3599 99.8836 38.0556ZM110.425 35.6027C110.422 35.6915 110.418 35.7804 110.419 35.8685C110.786 35.8395 111.169 35.8518 111.519 35.7786C113.247 35.4164 114.968 35.0336 116.686 34.6575C116.771 34.6389 116.878 34.6037 116.918 34.5523C117.002 34.4455 117.059 34.328 117.093 34.2115C117.1 34.1914 116.938 34.1168 116.867 34.1235C116.499 34.1621 116.095 34.1663 115.775 34.2814C114.581 34.7039 113.308 34.9672 112.032 35.2247C111.48 35.3349 110.958 35.4772 110.425 35.6027ZM111.294 32.6864C111.314 32.7269 111.335 32.7704 111.351 32.8117C112.441 32.6131 113.537 32.4167 114.626 32.2151C115.353 32.0795 116.079 31.9409 116.803 31.7965C117.522 31.6528 118.233 31.4982 118.95 31.3486C118.943 31.3309 118.932 31.3139 118.927 31.2992C116.383 31.7594 113.841 32.2225 111.294 32.6864ZM21.0684 54.0298C21.954 53.9725 22.8138 53.9198 23.5746 53.6173C23.7466 53.5482 23.8911 53.2603 23.7596 53.0952C23.6796 52.9931 23.4814 52.8464 23.3617 52.8588C22.6112 52.9324 21.8719 53.0482 21.1249 53.1433C20.8392 53.1795 20.7698 53.2395 20.9069 53.3343C21.389 53.2937 21.8548 53.2467 22.3187 53.2189C22.3867 53.216 22.4977 53.2903 22.5221 53.3426C22.5453 53.3919 22.5 53.4916 22.4399 53.5152C21.9886 53.6982 21.5295 53.8607 21.0684 54.0298ZM152.402 26.1941C152.843 26.0696 153.284 25.9577 153.707 25.8208C153.913 25.755 153.941 25.6111 153.814 25.4829C153.768 25.4345 153.688 25.3799 153.611 25.3718C152.626 25.2644 151.758 25.454 151.01 25.8992C150.953 25.9317 150.901 26.0358 150.934 26.0643C151.034 26.1565 151.171 26.3016 151.291 26.3019C151.657 26.2951 152.03 26.2335 152.402 26.1941ZM104.178 36.7564C103.884 36.832 103.679 36.8504 103.543 36.9288C103.426 36.9973 103.368 37.1245 103.322 37.2338C103.307 37.268 103.403 37.3514 103.474 37.3669C104.118 37.5112 104.764 37.5037 105.377 37.2975C105.491 37.2578 105.581 37.0682 105.545 36.9738C105.509 36.8795 105.31 36.755 105.169 36.7461C104.805 36.721 104.428 36.7486 104.178 36.7564ZM38.8326 49.9586C36.12 50.2636 36.1199 50.2636 34.6695 50.8619C35.6024 50.7834 36.3118 50.6006 37.0148 50.4378C37.6307 50.3004 38.326 50.2999 38.8326 49.9586ZM200.691 19.6322C200.093 19.7665 199.383 19.7161 198.939 20.1152C198.916 20.1384 198.983 20.2554 199.022 20.2609C199.716 20.3425 200.173 19.8685 200.843 19.8882C201.085 19.8946 201.267 19.8016 201.181 19.6974C201.134 19.6335 200.864 19.6511 200.691 19.6322ZM62.4683 45.5805C62.2165 45.6453 62.0409 45.6804 61.8774 45.7354C61.8043 45.7613 61.6986 45.8594 61.7106 45.8667C61.8142 45.9581 61.9247 46.0798 62.0686 46.1072C62.522 46.1979 62.9717 46.157 63.3732 45.9641C63.4398 45.9331 63.5196 45.8397 63.4987 45.8088C63.4241 45.7089 63.3177 45.5613 63.1988 45.5514C62.9351 45.5238 62.6614 45.5674 62.4683 45.5805ZM128.797 29.0945C128.627 29.1666 129.111 29.2296 129.496 28.9673C129.004 29.0568 128.582 29.1338 128.797 29.0945ZM137.24 30.0592C137.555 30.027 137.83 30.0338 138.067 29.9684C138.301 29.9038 138.674 29.965 138.756 29.6948C138.231 29.7558 137.702 29.7576 137.24 30.0592ZM16.5526 55.3283C16.0826 55.291 15.5775 55.3074 14.8721 55.6345C15.652 55.4924 16.1045 55.41 16.5526 55.3283ZM88.2481 37.8081C87.8042 37.7913 87.2726 37.7495 86.6882 38.0923C87.3518 37.9714 87.8 37.8898 88.2481 37.8081ZM123.97 32.9682C124.504 32.8709 124.869 32.8138 125.221 32.7339C125.344 32.7052 125.447 32.6235 125.559 32.5654C125.47 32.5626 125.369 32.54 125.29 32.5608C124.9 32.6633 124.419 32.609 123.97 32.9682ZM66.0178 45.5643C66.2143 45.4749 66.4582 45.3769 66.6814 45.2606C66.7394 45.2311 66.7782 45.1389 66.7582 45.0859C66.7034 44.9288 66.5324 44.8906 66.322 44.9919C66.0879 45.1039 65.8735 45.2312 65.6657 45.3637C65.6324 45.3855 65.6542 45.4918 65.702 45.5209C65.7607 45.5544 65.8729 45.5466 66.0178 45.5643ZM167.655 21.2312C168.132 21.3839 168.5 21.2128 168.873 21.0409C168.411 20.9266 168.022 21.0446 167.655 21.2312ZM120.411 33.607C120.571 33.5654 120.722 33.5031 120.878 33.4526C120.713 33.4418 120.549 33.4117 120.388 33.4222C120.136 33.4396 120.044 33.5257 120.154 33.6097C120.197 33.6366 120.336 33.6271 120.411 33.607ZM171.658 20.6345C171.886 20.6151 171.974 20.5454 171.885 20.4419C171.86 20.4148 171.737 20.4183 171.661 20.4227C171.436 20.4384 171.344 20.5119 171.433 20.6124C171.458 20.6424 171.578 20.6301 171.658 20.6345ZM212.048 14.0112C212.118 13.9764 212.241 13.9478 212.249 13.9084C212.272 13.775 212.144 13.7038 211.913 13.7269C211.838 13.7343 211.729 13.7888 211.718 13.8318C211.688 13.9727 211.813 14.0351 212.048 14.0112ZM149.999 24.9047C150.254 24.8865 150.32 24.8399 150.175 24.797C150.117 24.7791 150.021 24.8186 149.944 24.8327C149.958 24.8585 149.981 24.8827 149.999 24.9047ZM34.5252 54.4655C34.4516 54.4537 34.3736 54.4301 34.3067 54.436C34.2269 54.4442 34.154 54.4828 34.0798 54.5057C34.1533 54.5176 34.2336 54.5471 34.3047 54.5404C34.3802 54.533 34.4521 54.4915 34.5252 54.4655ZM57.0353 46.9137C57.0844 46.9584 57.1209 47.0305 57.1858 47.0439C57.2605 47.0587 57.4006 47.0394 57.4326 47.0021C57.5626 46.8586 57.4741 46.7707 57.2153 46.7927C57.1484 46.7986 57.0931 46.8717 57.0353 46.9137ZM217.924 18.4818C217.941 18.5261 217.958 18.5703 217.974 18.6145C218.051 18.5974 218.136 18.5914 218.193 18.5589C218.212 18.5491 218.162 18.4764 218.145 18.4322C218.073 18.4485 217.996 18.4655 217.924 18.4818ZM178.181 24.2465L178.008 24.215L178.01 24.306L178.181 24.2465ZM87.8911 38.6674L88.0524 38.6065L87.9042 38.58L87.8911 38.6674ZM34.3014 51.9596L34.1004 52.0372L34.2931 52.084L34.3014 51.9596Z" fill="url(#paint0_linear_294_196)"/>
<path d="M209.349 33.7925C208.692 34.7348 207.532 35.3841 206.465 36.0828C206.044 36.3581 205.737 36.2532 205.281 35.7029L205.249 35.7402C205.594 35.5323 205.939 35.3245 206.28 35.1174C206.28 35.1174 206.245 35.1584 206.246 35.1614C206.753 34.8704 207.273 34.5897 207.767 34.2856C208.2 34.0176 208.674 33.8239 209.249 33.7476L209.349 33.7925Z" fill="url(#paint1_linear_294_196)"/>
<path d="M210.295 33.2009C210.423 32.7962 210.844 32.5683 211.344 32.3922C211.388 32.3747 211.512 32.4119 211.548 32.4463C211.591 32.4858 211.611 32.564 211.581 32.6072C211.325 33.0007 210.787 33.0892 210.251 33.1806C210.25 33.1777 210.295 33.2009 210.295 33.2009Z" fill="url(#paint2_linear_294_196)"/>
<path d="M209.58 21.5462C209.645 21.7424 209.473 21.9315 209.186 21.9174C209.074 21.9127 208.885 21.777 208.89 21.7066C208.903 21.6065 209.031 21.4698 209.163 21.4299C209.259 21.403 209.44 21.5025 209.58 21.5462Z" fill="url(#paint3_linear_294_196)"/>
<path d="M245.843 17.358C246.121 17.5216 246.341 17.7243 246.031 17.9414C245.889 18.0399 245.577 18.0305 245.342 18.0544C245.266 18.0619 245.178 18.0243 245.097 18.0044C245.016 17.9845 244.939 17.9639 244.857 17.9411L244.839 17.9664C245.18 17.7593 245.52 17.5523 245.867 17.3474L245.843 17.358Z" fill="url(#paint4_linear_294_196)"/>
<path d="M6.19742 62.5035L6.00192 62.4981L6.13048 62.4117L6.19742 62.5035Z" fill="url(#paint5_linear_294_196)"/>
<path d="M209.249 33.7476C209.425 33.4097 209.828 33.2798 210.295 33.2009L210.25 33.1777C210.118 33.501 209.768 33.6719 209.349 33.7925L209.249 33.7476Z" fill="url(#paint6_linear_294_196)"/>
<path d="M29.2499 49.1102C29.3735 49.0593 29.4883 48.9974 29.6174 48.9613C29.6712 48.9452 29.7559 48.9865 29.8262 49.0021L29.8486 48.9759C29.6375 49.0144 29.4263 49.0528 29.2152 49.0913L29.2499 49.1102Z" fill="url(#paint7_linear_294_196)"/>
<path d="M15.6069 60.1024L15.6394 60.1153C15.6406 60.1183 15.6069 60.1024 15.6069 60.1024Z" fill="url(#paint8_linear_294_196)"/>
<path d="M61.3238 44.648C61.2867 44.7083 61.2641 44.807 61.2081 44.8172C59.4913 45.1615 57.7754 45.4961 56.0508 45.8197C55.9646 45.8354 55.812 45.7119 55.7151 45.6381C55.702 45.6279 55.7923 45.5012 55.8612 45.4886C57.4987 45.1903 59.1416 44.8942 60.7846 44.6107C60.9484 44.5809 61.1433 44.6336 61.3238 44.648Z" fill="url(#paint9_linear_294_196)"/>
<path d="M58.8382 44.3349C58.26 44.7428 57.4293 44.7019 56.7319 44.892C56.1174 45.0575 55.4413 45.1207 54.7871 45.2179C54.7084 45.229 54.6107 45.1775 54.524 45.1554C54.6039 45.0621 54.6508 44.918 54.7627 44.885C56.001 44.5176 57.3128 44.3449 58.6404 44.226C58.6932 44.2195 58.761 44.2891 58.8382 44.3349Z" fill="url(#paint10_linear_294_196)"/>
<path d="M73.42 41.1176C74.1293 40.9348 74.8321 40.7469 75.5448 40.5729C76.0217 40.4577 76.6175 40.5477 76.5416 40.7002C76.3982 40.9911 76.004 41.0692 75.6451 41.1189C74.9078 41.2153 74.1592 41.2697 73.4162 41.3389C73.4218 41.2685 73.4209 41.1931 73.42 41.1176Z" fill="url(#paint11_linear_294_196)"/>
<path d="M77.5099 41.5198C77.4517 41.5241 77.1778 41.5551 76.907 41.5697C76.8304 41.5742 76.7446 41.53 76.6623 41.5071C76.7358 41.4213 76.7806 41.2839 76.885 41.2554C77.3068 41.1408 77.744 41.0422 78.1848 40.9777C78.3066 40.9587 78.4698 41.0739 78.6108 41.1302C78.4866 41.2158 78.3842 41.3227 78.2402 41.3804C78.0919 41.439 77.8934 41.4499 77.5099 41.5198Z" fill="url(#paint12_linear_294_196)"/>
<path d="M52.3672 46.456C52.188 46.4572 51.9855 46.4941 51.8274 46.4535C51.6075 46.3958 51.8927 46.2241 52.3726 46.1777C52.4567 46.1687 52.6079 46.1789 52.6354 46.2149C52.7198 46.3287 52.6096 46.415 52.3672 46.456Z" fill="url(#paint13_linear_294_196)"/>
<path d="M70.0503 41.9993C69.9685 42.0268 69.8802 42.0492 69.8003 42.0448C69.7258 42.0426 69.6057 42.0173 69.5869 41.9797C69.5197 41.8627 69.6148 41.7855 69.8205 41.7449C70.0349 41.7027 70.1692 41.7413 70.1795 41.8781C70.1865 41.9209 70.1029 41.9802 70.0503 41.9993Z" fill="url(#paint14_linear_294_196)"/>
<path d="M84.8242 39.5098C84.8389 39.5607 84.8927 39.6423 84.8616 39.6574C84.7383 39.7334 84.5959 39.8319 84.4513 39.8393C84.3111 39.846 84.161 39.7535 84.0136 39.7047C84.1195 39.6192 84.2098 39.4925 84.3443 39.4585C84.48 39.4275 84.6599 39.4893 84.8242 39.5098Z" fill="url(#paint15_linear_294_196)"/>
<path d="M80.4846 40.1773L80.5102 40.1475C80.5059 40.1483 80.4846 40.1773 80.4846 40.1773Z" fill="url(#paint16_linear_294_196)"/>
<path d="M215.888 26.0612C215.342 26.1639 214.8 26.2783 214.248 26.3536C214.121 26.3705 213.866 26.2813 213.827 26.2033C213.778 26.1083 213.845 25.9448 213.945 25.8572C214.322 25.5268 214.849 25.3962 215.441 25.4522C215.575 25.4656 215.72 25.6062 215.782 25.7085C215.852 25.8217 215.837 25.9633 215.858 26.0918C215.859 26.0948 215.888 26.0612 215.888 26.0612Z" fill="url(#paint17_linear_294_196)"/>
<path d="M42.3418 47.6173C42.7628 47.5248 43.1084 47.4398 43.4606 47.3725C43.9993 47.2744 44.5412 47.1851 45.0811 47.1025C45.1382 47.0952 45.2189 47.1625 45.2917 47.1966C45.2372 47.2475 45.1961 47.3337 45.1272 47.3463C44.3148 47.4879 43.4948 47.6216 42.6769 47.7485C42.6155 47.7566 42.5262 47.6908 42.3418 47.6173Z" fill="url(#paint18_linear_294_196)"/>
<path d="M30.564 50.8691C30.4267 50.8594 30.2852 50.8505 30.1491 50.8438C30.2105 50.8357 30.275 50.8114 30.3302 50.8234C30.4049 50.8382 30.4744 50.876 30.5438 50.9011C30.5427 50.8982 30.564 50.8691 30.564 50.8691Z" fill="url(#paint19_linear_294_196)"/>
<path d="M174.525 25.0765C174.525 25.0765 174.544 25.0541 174.548 25.0533C174.543 25.0511 174.525 25.0765 174.525 25.0765Z" fill="url(#paint20_linear_294_196)"/>
<path d="M207.991 8.40554C208.569 8.30036 209.146 8.19517 209.718 8.08782C209.276 8.54019 208.719 8.69846 207.991 8.40554Z" fill="url(#paint21_linear_294_196)"/>
<path d="M211.063 8.697C211.201 8.70962 211.335 8.72306 211.473 8.73568C211.415 8.73999 211.352 8.7547 211.298 8.74564C211.223 8.73087 211.156 8.69898 211.086 8.6738L211.063 8.697Z" fill="url(#paint22_linear_294_196)"/>
<path d="M206.726 8.22626C207.114 8.15561 207.5 8.08202 207.888 8.01137C207.94 8.14702 207.991 8.28271 208.042 8.41836C207.603 8.35335 207.164 8.28831 206.726 8.22626Z" fill="url(#paint23_linear_294_196)"/>
<path d="M211.086 8.6738C211.036 8.5411 210.989 8.40473 210.938 8.26908L210.901 8.25686C210.956 8.40136 211.011 8.5488 211.062 8.69408C211.063 8.69703 211.086 8.6738 211.086 8.6738Z" fill="url(#paint24_linear_294_196)"/>
<path d="M213.061 9.13362L213.012 9.11411C213.011 9.11116 213.061 9.13362 213.061 9.13362Z" fill="url(#paint25_linear_294_196)"/>
<defs>
<linearGradient id="paint0_linear_294_196" x1="-1.6322" y1="54.9589" x2="-5.15531" y2="17.7593" gradientUnits="userSpaceOnUse">
<stop stop-color="#4E46DC"/>
<stop offset="1" stop-color="#6961F7"/>
</linearGradient>
<linearGradient id="paint1_linear_294_196" x1="-1.6322" y1="54.9589" x2="-5.15531" y2="17.7593" gradientUnits="userSpaceOnUse">
<stop stop-color="#4E46DC"/>
<stop offset="1" stop-color="#6961F7"/>
</linearGradient>
<linearGradient id="paint2_linear_294_196" x1="-1.6322" y1="54.9589" x2="-5.15531" y2="17.7593" gradientUnits="userSpaceOnUse">
<stop stop-color="#4E46DC"/>
<stop offset="1" stop-color="#6961F7"/>
</linearGradient>
<linearGradient id="paint3_linear_294_196" x1="-1.6322" y1="54.9589" x2="-5.15531" y2="17.7593" gradientUnits="userSpaceOnUse">
<stop stop-color="#4E46DC"/>
<stop offset="1" stop-color="#6961F7"/>
</linearGradient>
<linearGradient id="paint4_linear_294_196" x1="-1.6322" y1="54.9589" x2="-5.15531" y2="17.7593" gradientUnits="userSpaceOnUse">
<stop stop-color="#4E46DC"/>
<stop offset="1" stop-color="#6961F7"/>
</linearGradient>
<linearGradient id="paint5_linear_294_196" x1="-1.6322" y1="54.9589" x2="-5.15531" y2="17.7593" gradientUnits="userSpaceOnUse">
<stop stop-color="#4E46DC"/>
<stop offset="1" stop-color="#6961F7"/>
</linearGradient>
<linearGradient id="paint6_linear_294_196" x1="-1.6322" y1="54.9589" x2="-5.15531" y2="17.7593" gradientUnits="userSpaceOnUse">
<stop stop-color="#4E46DC"/>
<stop offset="1" stop-color="#6961F7"/>
</linearGradient>
<linearGradient id="paint7_linear_294_196" x1="-1.6322" y1="54.9589" x2="-5.15531" y2="17.7593" gradientUnits="userSpaceOnUse">
<stop stop-color="#4E46DC"/>
<stop offset="1" stop-color="#6961F7"/>
</linearGradient>
<linearGradient id="paint8_linear_294_196" x1="-1.6322" y1="54.9589" x2="-5.15531" y2="17.7593" gradientUnits="userSpaceOnUse">
<stop stop-color="#4E46DC"/>
<stop offset="1" stop-color="#6961F7"/>
</linearGradient>
<linearGradient id="paint9_linear_294_196" x1="-1.6322" y1="54.9589" x2="-5.15531" y2="17.7593" gradientUnits="userSpaceOnUse">
<stop stop-color="#4E46DC"/>
<stop offset="1" stop-color="#6961F7"/>
</linearGradient>
<linearGradient id="paint10_linear_294_196" x1="-1.6322" y1="54.9589" x2="-5.15531" y2="17.7593" gradientUnits="userSpaceOnUse">
<stop stop-color="#4E46DC"/>
<stop offset="1" stop-color="#6961F7"/>
</linearGradient>
<linearGradient id="paint11_linear_294_196" x1="-1.6322" y1="54.9589" x2="-5.15531" y2="17.7593" gradientUnits="userSpaceOnUse">
<stop stop-color="#4E46DC"/>
<stop offset="1" stop-color="#6961F7"/>
</linearGradient>
<linearGradient id="paint12_linear_294_196" x1="-1.6322" y1="54.9589" x2="-5.15531" y2="17.7593" gradientUnits="userSpaceOnUse">
<stop stop-color="#4E46DC"/>
<stop offset="1" stop-color="#6961F7"/>
</linearGradient>
<linearGradient id="paint13_linear_294_196" x1="-1.6322" y1="54.9589" x2="-5.15531" y2="17.7593" gradientUnits="userSpaceOnUse">
<stop stop-color="#4E46DC"/>
<stop offset="1" stop-color="#6961F7"/>
</linearGradient>
<linearGradient id="paint14_linear_294_196" x1="-1.6322" y1="54.9589" x2="-5.15531" y2="17.7593" gradientUnits="userSpaceOnUse">
<stop stop-color="#4E46DC"/>
<stop offset="1" stop-color="#6961F7"/>
</linearGradient>
<linearGradient id="paint15_linear_294_196" x1="-1.6322" y1="54.9589" x2="-5.15531" y2="17.7593" gradientUnits="userSpaceOnUse">
<stop stop-color="#4E46DC"/>
<stop offset="1" stop-color="#6961F7"/>
</linearGradient>
<linearGradient id="paint16_linear_294_196" x1="-1.6322" y1="54.9589" x2="-5.15531" y2="17.7593" gradientUnits="userSpaceOnUse">
<stop stop-color="#4E46DC"/>
<stop offset="1" stop-color="#6961F7"/>
</linearGradient>
<linearGradient id="paint17_linear_294_196" x1="-1.6322" y1="54.9589" x2="-5.15531" y2="17.7593" gradientUnits="userSpaceOnUse">
<stop stop-color="#4E46DC"/>
<stop offset="1" stop-color="#6961F7"/>
</linearGradient>
<linearGradient id="paint18_linear_294_196" x1="-1.6322" y1="54.9589" x2="-5.15531" y2="17.7593" gradientUnits="userSpaceOnUse">
<stop stop-color="#4E46DC"/>
<stop offset="1" stop-color="#6961F7"/>
</linearGradient>
<linearGradient id="paint19_linear_294_196" x1="-1.6322" y1="54.9589" x2="-5.15531" y2="17.7593" gradientUnits="userSpaceOnUse">
<stop stop-color="#4E46DC"/>
<stop offset="1" stop-color="#6961F7"/>
</linearGradient>
<linearGradient id="paint20_linear_294_196" x1="-1.6322" y1="54.9589" x2="-5.15531" y2="17.7593" gradientUnits="userSpaceOnUse">
<stop stop-color="#4E46DC"/>
<stop offset="1" stop-color="#6961F7"/>
</linearGradient>
<linearGradient id="paint21_linear_294_196" x1="-1.6322" y1="54.9589" x2="-5.15531" y2="17.7593" gradientUnits="userSpaceOnUse">
<stop stop-color="#4E46DC"/>
<stop offset="1" stop-color="#6961F7"/>
</linearGradient>
<linearGradient id="paint22_linear_294_196" x1="-1.6322" y1="54.9589" x2="-5.15531" y2="17.7593" gradientUnits="userSpaceOnUse">
<stop stop-color="#4E46DC"/>
<stop offset="1" stop-color="#6961F7"/>
</linearGradient>
<linearGradient id="paint23_linear_294_196" x1="-1.6322" y1="54.9589" x2="-5.15531" y2="17.7593" gradientUnits="userSpaceOnUse">
<stop stop-color="#4E46DC"/>
<stop offset="1" stop-color="#6961F7"/>
</linearGradient>
<linearGradient id="paint24_linear_294_196" x1="-1.6322" y1="54.9589" x2="-5.15531" y2="17.7593" gradientUnits="userSpaceOnUse">
<stop stop-color="#4E46DC"/>
<stop offset="1" stop-color="#6961F7"/>
</linearGradient>
<linearGradient id="paint25_linear_294_196" x1="-1.6322" y1="54.9589" x2="-5.15531" y2="17.7593" gradientUnits="userSpaceOnUse">
<stop stop-color="#4E46DC"/>
<stop offset="1" stop-color="#6961F7"/>
</linearGradient>
</defs>
</svg>
